<?xml version="1.0" encoding="utf-8"?>
<!-- Generator: Adobe Illustrator 24.1.0, SVG Export Plug-In . SVG Version: 6.00 Build 0)  -->
<svg version="1.1" id="Capa_1" xmlns="http://www.w3.org/2000/svg" xmlns:xlink="http://www.w3.org/1999/xlink" x="0px" y="0px"
	 viewBox="0 0 150 150" style="enable-background:new 0 0 150 150;" xml:space="preserve">
<style type="text/css">
	.st0{fill:#F54670;}
	.st1{opacity:0.13;fill:#020203;enable-background:new    ;}
	.st2{fill:#FFFFFF;}
</style>
<circle class="st0" cx="75.01" cy="75" r="73.99"/>
<path class="st1" d="M118.54,15.31C12.63,10.77,9.16,108.18,9.13,108.88C3.93,98.76,1,87.29,1,75.13C1,34.27,34.13,1.15,74.99,1.15
	C91.27,1.15,106.32,6.4,118.54,15.31z"/>
<g>
	<path class="st2" d="M43.87,80.78c0,2.37-0.85,4.24-2.56,5.6c-1.71,1.37-4.08,2.05-7.12,2.05c-2.8,0-5.28-0.53-7.44-1.58v-5.17
		c1.77,0.79,3.27,1.35,4.5,1.67c1.23,0.32,2.35,0.48,3.37,0.48c1.22,0,2.16-0.23,2.81-0.7c0.65-0.47,0.98-1.16,0.98-2.08
		c0-0.51-0.14-0.97-0.43-1.37s-0.71-0.79-1.27-1.16c-0.56-0.37-1.69-0.96-3.4-1.78c-1.6-0.75-2.81-1.48-3.61-2.17
		c-0.8-0.69-1.44-1.5-1.92-2.42c-0.48-0.92-0.72-2-0.72-3.23c0-2.32,0.79-4.15,2.36-5.48c1.57-1.33,3.75-1.99,6.53-1.99
		c1.37,0,2.67,0.16,3.91,0.48c1.24,0.32,2.54,0.78,3.89,1.37l-1.8,4.33c-1.4-0.57-2.56-0.98-3.48-1.2s-1.82-0.34-2.7-0.34
		c-1.05,0-1.86,0.25-2.42,0.74c-0.56,0.49-0.84,1.13-0.84,1.92c0,0.49,0.11,0.92,0.34,1.28c0.23,0.37,0.59,0.72,1.09,1.06
		c0.5,0.34,1.67,0.96,3.53,1.84c2.45,1.17,4.14,2.35,5.05,3.53C43.42,77.63,43.87,79.07,43.87,80.78z"/>
	<path class="st2" d="M64.71,88.08l-1.9-6.25h-9.57l-1.9,6.25h-6l9.27-26.37h6.81l9.3,26.37H64.71z M61.47,77.16
		c-1.76-5.66-2.75-8.87-2.97-9.61c-0.22-0.74-0.38-1.33-0.48-1.76c-0.4,1.53-1.53,5.32-3.39,11.37H61.47z"/>
	<path class="st2" d="M74.01,88.08V61.82h5.57v21.66h10.65v4.6H74.01z"/>
	<path class="st2" d="M109.92,88.08H94.79V61.82h15.12v4.56h-9.56v5.77h8.89v4.56h-8.89v6.77h9.56V88.08z"/>
	<path class="st2" d="M116.96,85.51c0-0.56,0.08-1.04,0.24-1.43c0.16-0.39,0.39-0.7,0.67-0.94s0.62-0.41,1.01-0.52
		c0.38-0.11,0.8-0.16,1.24-0.16c0.42,0,0.82,0.05,1.19,0.16s0.71,0.28,1,0.52s0.51,0.55,0.68,0.94c0.17,0.39,0.25,0.87,0.25,1.43
		c0,0.54-0.08,1-0.25,1.38c-0.17,0.38-0.4,0.7-0.68,0.95c-0.29,0.25-0.62,0.43-1,0.55s-0.78,0.17-1.19,0.17
		c-0.44,0-0.86-0.06-1.24-0.17c-0.38-0.11-0.72-0.3-1.01-0.55c-0.29-0.25-0.51-0.57-0.67-0.95
		C117.04,86.51,116.96,86.05,116.96,85.51z M122.33,79.36h-4.38l-0.92-17.55h6.22L122.33,79.36z"/>
</g>
</svg>
