<?xml version="1.0" encoding="utf-8"?>
<!-- Generator: Adobe Illustrator 24.1.0, SVG Export Plug-In . SVG Version: 6.00 Build 0)  -->
<svg version="1.1" id="Capa_1" xmlns="http://www.w3.org/2000/svg" xmlns:xlink="http://www.w3.org/1999/xlink" x="0px" y="0px"
	 viewBox="0 0 150 150" style="enable-background:new 0 0 150 150;" xml:space="preserve">
<style type="text/css">
	.st0{fill:#FFFFFF;}
</style>
<g>
	<path class="st0" d="M60.8,67.3c-0.3,1.3-1.3,4.5-2.8,9.5h5.7c-1.5-4.7-2.3-7.4-2.5-8.1C61,68.1,60.8,67.6,60.8,67.3z"/>
	<path class="st0" d="M75,13c-34.2,0-62,27.8-62,62s27.8,62,62,62s62-27.8,62-62S109.2,13,75,13z M46.8,84.5c-1.4,1.1-3.4,1.7-6,1.7
		c-2.3,0-4.4-0.4-6.2-1.3v-4.3c1.5,0.7,2.7,1.1,3.8,1.4c1,0.3,2,0.4,2.8,0.4c1,0,1.8-0.2,2.4-0.6c0.5-0.4,0.8-1,0.8-1.7
		c0-0.4-0.1-0.8-0.4-1.1c-0.2-0.3-0.6-0.7-1.1-1c-0.5-0.3-1.4-0.8-2.8-1.5c-1.3-0.6-2.4-1.2-3-1.8c-0.7-0.6-1.2-1.3-1.6-2
		c-0.4-0.8-0.6-1.7-0.6-2.7c0-1.9,0.7-3.5,2-4.6s3.1-1.7,5.5-1.7c1.1,0,2.2,0.1,3.3,0.4c1,0.3,2.1,0.7,3.3,1.1l-1.5,3.6
		c-1.2-0.5-2.1-0.8-2.9-1c-0.8-0.2-1.5-0.3-2.3-0.3c-0.9,0-1.6,0.2-2,0.6s-0.7,0.9-0.7,1.6c0,0.4,0.1,0.8,0.3,1.1
		c0.2,0.3,0.5,0.6,0.9,0.9c0.4,0.3,1.4,0.8,3,1.5c2.1,1,3.5,2,4.2,3c0.8,1,1.1,2.2,1.1,3.6C48.9,81.8,48.2,83.4,46.8,84.5z M66.4,86
		l-1.6-5.2h-8L55.2,86h-5l7.8-22.1h5.7L71.4,86H66.4z M87.8,86H74.2V64h4.7v18.2h8.9V86z M91.6,86V64h12.7v3.8h-8v4.8h7.4v3.8h-7.4
		v5.7h8V86H91.6z M115.2,85c-0.1,0.3-0.3,0.6-0.6,0.8c-0.2,0.2-0.5,0.4-0.8,0.5c-0.3,0.1-0.7,0.1-1,0.1c-0.4,0-0.7-0.1-1-0.1
		c-0.3-0.1-0.6-0.3-0.8-0.5s-0.4-0.5-0.6-0.8c-0.1-0.3-0.2-0.7-0.2-1.2c0-0.5,0.1-0.9,0.2-1.2c0.1-0.3,0.3-0.6,0.6-0.8
		c0.2-0.2,0.5-0.3,0.8-0.4c0.3-0.1,0.7-0.1,1-0.1c0.4,0,0.7,0,1,0.1c0.3,0.1,0.6,0.2,0.8,0.4c0.2,0.2,0.4,0.5,0.6,0.8
		c0.1,0.3,0.2,0.7,0.2,1.2C115.4,84.3,115.3,84.6,115.2,85z M114.7,78.7H111l-0.8-14.7h5.2L114.7,78.7z"/>
</g>
</svg>
