<?xml version="1.0" encoding="utf-8"?>
<!-- Generator: Adobe Illustrator 24.1.0, SVG Export Plug-In . SVG Version: 6.00 Build 0)  -->
<svg version="1.1" id="Capa_1" xmlns="http://www.w3.org/2000/svg" xmlns:xlink="http://www.w3.org/1999/xlink" x="0px" y="0px"
	 viewBox="0 0 150 150" style="enable-background:new 0 0 150 150;" xml:space="preserve">
<style type="text/css">
	.st0{fill:#E793E0;}
	.st1{opacity:0.13;fill:#020203;enable-background:new    ;}
	.st2{fill:#FFFFFF;}
</style>
<circle class="st0" cx="75.01" cy="75" r="73.99"/>
<path class="st1" d="M118.54,15.31C12.63,10.77,9.16,108.18,9.13,108.88C3.93,98.76,1,87.29,1,75.13C1,34.27,34.13,1.15,74.99,1.15
	C91.27,1.15,106.32,6.4,118.54,15.31z"/>
<path class="st2" d="M91.77,89.06c1.14,1.35,11.86,12.09,13.61,14.27c1.51,1.89,1.88,4.1,0.76,6.26c-1.12,2.17-3.23,3.49-5.7,3.39
	c-1.79-0.07-3.48-1-4.62-2.36c-2.6-3.08-9.69-10.31-12.3-13.38c-0.17-0.2-0.36-0.39-0.61-0.66c-0.26,0.47-0.5,0.86-0.7,1.27
	c-1.9,3.91-3.8,7.83-5.69,11.74c-0.73,1.49-1.98,1.98-3.51,1.35c-1.34-0.54-2.11-1.57-2.49-2.93c-1.59-5.68-3.18-11.35-4.78-17.03
	c-2.46-8.73-4.92-17.47-7.39-26.2c-0.34-1.2-0.52-2.39-0.12-3.61c0.65-1.99,2.54-2.88,4.84-2.08c1.71,0.59,3.34,1.44,4.99,2.21
	c12.28,5.75,24.56,11.52,36.84,17.27c1.33,0.62,2.32,1.5,2.67,2.97c0.4,1.65-0.28,2.84-1.9,3.32c-4.12,1.22-8.24,2.43-12.35,3.64
	C92.84,88.67,92.36,88.86,91.77,89.06z"/>
<path class="st2" d="M41.91,65.99c2.04-0.01,3.26,0.9,3.62,2.33c0.38,1.51-0.19,2.96-1.65,3.62c-1.25,0.56-2.61,0.9-3.94,1.29
	c-2.17,0.63-4.33,1.29-6.52,1.78c-1.95,0.43-3.4-0.54-3.86-2.34c-0.43-1.71,0.43-3.25,2.3-3.84c2.49-0.78,5.01-1.46,7.52-2.17
	C40.36,66.37,41.36,66.13,41.91,65.99z"/>
<path class="st2" d="M71.92,49.11c-2.58-0.04-4.11-2.58-2.87-4.84c1.63-2.98,3.29-5.94,4.97-8.89c0.75-1.32,1.85-1.81,3.28-1.55
	c1.37,0.24,2.5,1.27,2.64,2.63c0.07,0.61-0.05,1.33-0.34,1.87c-1.66,3.09-3.36,6.15-5.11,9.18C73.95,48.44,73.11,49.12,71.92,49.11z
	"/>
<path class="st2" d="M47.39,53.6c-0.02,1.54-0.82,2.92-2.22,3.26c-0.76,0.19-1.77-0.01-2.49-0.39c-3.04-1.58-6.04-3.24-8.99-4.97
	c-1.56-0.91-1.97-2.81-1.14-4.28c0.84-1.5,2.61-2.1,4.24-1.24c3.1,1.63,6.16,3.36,9.2,5.1C46.94,51.62,47.45,52.52,47.39,53.6z"/>
<path class="st2" d="M56.25,47.24c-1.3-0.01-2.42-0.72-2.83-2.06c-1.03-3.37-2.02-6.76-2.9-10.17c-0.47-1.83,0.57-3.38,2.29-3.82
	c1.63-0.42,3.28,0.47,3.82,2.23c0.99,3.24,1.93,6.5,2.79,9.78C60.01,45.46,58.54,47.26,56.25,47.24z"/>
</svg>
