<?xml version="1.0" encoding="utf-8"?>
<!-- Generator: Adobe Illustrator 24.1.0, SVG Export Plug-In . SVG Version: 6.00 Build 0)  -->
<svg version="1.1" id="Capa_1" xmlns="http://www.w3.org/2000/svg" xmlns:xlink="http://www.w3.org/1999/xlink" x="0px" y="0px"
	 viewBox="0 0 150 150" style="enable-background:new 0 0 150 150;" xml:space="preserve">
<style type="text/css">
	.st0{fill:#FFFFFF;}
</style>
<g>
	<path class="st0" d="M105.8,97.6c1.5,1.8,15.8,16.1,18.1,19c2,2.5,2.5,5.5,1,8.3c-1.5,2.9-4.3,4.6-7.6,4.5
		c-2.4-0.1-4.6-1.3-6.1-3.1c-3.5-4.1-12.9-13.7-16.4-17.8c-0.2-0.3-0.5-0.5-0.8-0.9c-0.3,0.6-0.7,1.1-0.9,1.7
		c-2.5,5.2-5.1,10.4-7.6,15.6c-1,2-2.6,2.6-4.7,1.8c-1.8-0.7-2.8-2.1-3.3-3.9c-2.1-7.6-4.2-15.1-6.4-22.6C68,88.6,64.7,77,61.4,65.4
		c-0.5-1.6-0.7-3.2-0.2-4.8c0.9-2.6,3.4-3.8,6.4-2.8c2.3,0.8,4.4,1.9,6.6,2.9c16.3,7.6,32.7,15.3,49,23c1.8,0.8,3.1,2,3.5,3.9
		c0.5,2.2-0.4,3.8-2.5,4.4c-5.5,1.6-11,3.2-16.4,4.8C107.3,97.1,106.6,97.4,105.8,97.6z"/>
	<path class="st0" d="M39.6,67c2.7,0,4.3,1.2,4.8,3.1c0.5,2-0.3,3.9-2.2,4.8c-1.7,0.7-3.5,1.2-5.2,1.7c-2.9,0.8-5.8,1.7-8.7,2.4
		c-2.6,0.6-4.5-0.7-5.1-3.1c-0.6-2.3,0.6-4.3,3.1-5.1c3.3-1,6.7-1.9,10-2.9C37.5,67.5,38.8,67.1,39.6,67z"/>
	<path class="st0" d="M79.5,44.5c-3.4-0.1-5.5-3.4-3.8-6.4c2.2-4,4.4-7.9,6.6-11.8c1-1.8,2.5-2.4,4.4-2.1c1.8,0.3,3.3,1.7,3.5,3.5
		c0.1,0.8-0.1,1.8-0.5,2.5c-2.2,4.1-4.5,8.2-6.8,12.2C82.2,43.6,81,44.5,79.5,44.5z"/>
	<path class="st0" d="M46.8,50.5c0,2-1.1,3.9-3,4.3c-1,0.3-2.4,0-3.3-0.5c-4-2.1-8-4.3-12-6.6C26.6,46.5,26,44,27.1,42
		c1.1-2,3.5-2.8,5.6-1.6c4.1,2.2,8.2,4.5,12.2,6.8C46.2,47.9,46.9,49.1,46.8,50.5z"/>
	<path class="st0" d="M58.6,42c-1.7,0-3.2-1-3.8-2.7c-1.4-4.5-2.7-9-3.9-13.5c-0.6-2.4,0.8-4.5,3-5.1c2.2-0.6,4.4,0.6,5.1,3
		c1.3,4.3,2.6,8.6,3.7,13C63.6,39.7,61.7,42.1,58.6,42z"/>
</g>
</svg>
