<?xml version="1.0" encoding="utf-8"?>
<!-- Generator: Adobe Illustrator 24.1.0, SVG Export Plug-In . SVG Version: 6.00 Build 0)  -->
<svg version="1.1" id="Capa_1" xmlns="http://www.w3.org/2000/svg" xmlns:xlink="http://www.w3.org/1999/xlink" x="0px" y="0px"
	 viewBox="0 0 150 150" style="enable-background:new 0 0 150 150;" xml:space="preserve">
<style type="text/css">
	.st0{fill:#FFFFFF;}
</style>
<path class="st0" d="M23.5,25v102.7h31.1V25H23.5z M50.6,122.1H27.5v-4.4h23.1V122.1z M50.6,114.4H27.5v-4.4h23.1V114.4z M50.6,37.9
	H27.5v-4.4h23.1V37.9z"/>
<path class="st0" d="M60.2,25v102.7h31.1V25H60.2z M87.2,122.1H64.2v-4.4h23.1V122.1z M87.2,114.4H64.2v-4.4h23.1V114.4z M87.2,37.9
	H64.2v-4.4h23.1V37.9z"/>
<path class="st0" d="M96.4,25v102.7h31.1V25H96.4z M123.5,122.1h-23.1v-4.4h23.1V122.1z M123.5,114.4h-23.1v-4.4h23.1V114.4z
	 M123.5,37.9h-23.1v-4.4h23.1V37.9z"/>
</svg>
