<?xml version="1.0" encoding="utf-8"?>
<!-- Generator: Adobe Illustrator 24.1.0, SVG Export Plug-In . SVG Version: 6.00 Build 0)  -->
<svg version="1.1" id="Capa_1" xmlns="http://www.w3.org/2000/svg" xmlns:xlink="http://www.w3.org/1999/xlink" x="0px" y="0px"
	 viewBox="0 0 150 55" style="enable-background:new 0 0 150 55;" xml:space="preserve">
<style type="text/css">
	.st0{fill:#4B509D;}
	.st1{fill:#BA9AC8;stroke:#FFFFFF;stroke-width:0.8028;stroke-miterlimit:10;}
	.st2{fill:#FFFFFF;}
</style>
<g>
	<g>
		<polygon class="st0" points="17.54,35.1 17.54,28.72 1.7,28.72 1.7,54.54 17.54,54.54 17.54,48.13 8.98,48.13 8.98,44.35 
			16.95,44.35 16.95,37.97 8.98,37.97 8.98,35.1 		"/>
		<path class="st0" d="M33.88,28.72l-4.72,14.84c-0.04,0.15-0.08,0.3-0.12,0.44c-0.05-0.16-0.09-0.32-0.14-0.48l-4.68-14.8h-7.47
			l8.76,25.82h3.23h0.84h3.02l8.78-25.82H33.88z"/>
		<polygon class="st0" points="57.41,35.1 57.41,28.72 41.57,28.72 41.57,54.54 57.41,54.54 57.41,48.13 48.85,48.13 48.85,44.35 
			56.81,44.35 56.81,37.97 48.85,37.97 48.85,35.1 		"/>
		<path class="st0" d="M76.4,28.72V41c0,0.54,0.01,1.22,0.04,2.07l-8.32-14.35h-8.1v25.82h6.75V42.32c0-0.58-0.02-1.34-0.06-2.25
			l8.32,14.46h8.15V28.72H76.4z"/>
		<polygon class="st0" points="84.51,28.72 84.51,35.17 90.9,35.17 90.9,54.54 98.18,54.54 98.18,35.17 104.57,35.17 104.57,28.72 
					"/>
		<path class="st0" d="M126.04,31.84c-2.13-2.32-5.21-3.49-9.14-3.49c-3.93,0-7.01,1.16-9.16,3.46c-2.13,2.27-3.21,5.56-3.21,9.75
			c0,4.2,1.08,7.49,3.2,9.79c2.15,2.33,5.22,3.51,9.14,3.51c3.92,0,7-1.18,9.14-3.51c2.12-2.3,3.2-5.58,3.2-9.76
			C129.22,37.41,128.15,34.13,126.04,31.84z M116.87,48.38c-1.62,0-2.78-0.5-3.55-1.54c-0.84-1.12-1.27-2.89-1.27-5.25
			c0-2.36,0.43-4.13,1.28-5.25c0.78-1.04,1.95-1.55,3.57-1.55c2.06,0,4.79,0.7,4.79,6.8C121.69,47.68,118.94,48.38,116.87,48.38z"/>
		<path class="st0" d="M141.52,38.78c-2-0.96-2.74-1.38-3.01-1.56c-0.39-0.27-0.57-0.48-0.65-0.61c-0.09-0.14-0.13-0.32-0.13-0.54
			c0-0.38,0.11-0.64,0.36-0.86c0.6-0.52,2.16-0.45,3.56-0.11c0.77,0.19,1.76,0.54,2.95,1.03l1.06,0.43l2.48-5.98l-1.03-0.45
			c-1.27-0.55-2.5-0.98-3.65-1.28c-1.2-0.31-2.47-0.47-3.79-0.47c-2.76,0-4.97,0.69-6.59,2.06c-1.68,1.41-2.52,3.36-2.52,5.78
			c0,1.29,0.26,2.44,0.77,3.42c0.5,0.95,1.16,1.8,1.99,2.51c0.81,0.7,1.95,1.39,3.49,2.12c1.84,0.87,2.59,1.3,2.91,1.51
			c0.38,0.25,0.66,0.51,0.84,0.75c0.12,0.16,0.17,0.34,0.17,0.56c0,0.57-0.2,0.79-0.4,0.93c-0.75,0.53-2.54,0.55-4.57,0.02
			c-1.04-0.27-2.33-0.76-3.86-1.43l-1.61-0.72v7.12l0.64,0.31c2.08,1.02,4.49,1.53,7.17,1.53c2.98,0,5.36-0.7,7.1-2.09
			c1.81-1.45,2.72-3.44,2.72-5.91c0-1.79-0.49-3.33-1.46-4.59C145.52,41.06,143.91,39.92,141.52,38.78z"/>
		<polygon class="st1" points="15.82,33.38 15.82,30.44 3.42,30.44 3.42,52.82 15.82,52.82 15.82,49.85 7.26,49.85 7.26,42.63 
			15.22,42.63 15.22,39.69 7.26,39.69 7.26,33.38 		"/>
		<polygon class="st1" points="55.69,33.38 55.69,30.44 43.29,30.44 43.29,52.82 55.69,52.82 55.69,49.85 47.13,49.85 47.13,42.63 
			55.1,42.63 55.1,39.69 47.13,39.69 47.13,33.38 		"/>
		<polygon class="st1" points="102.85,30.44 86.23,30.44 86.23,33.45 92.62,33.45 92.62,52.82 96.46,52.82 96.46,33.45 
			102.85,33.45 		"/>
		<path class="st1" d="M116.9,30.07c-3.43,0-6.09,0.98-7.9,2.92c-1.82,1.95-2.75,4.83-2.75,8.58c0,3.75,0.92,6.65,2.74,8.62
			c1.81,1.96,4.46,2.95,7.88,2.95c3.42,0,6.07-0.99,7.88-2.95c1.82-1.97,2.75-4.86,2.75-8.59c0-3.74-0.92-6.63-2.72-8.59
			C122.98,31.06,120.33,30.07,116.9,30.07z M116.87,50.1c-2.17,0-3.83-0.75-4.93-2.22c-1.07-1.42-1.61-3.54-1.61-6.28
			s0.55-4.86,1.63-6.29c1.12-1.48,2.78-2.23,4.95-2.23c4.32,0,6.51,2.87,6.51,8.52C123.41,47.24,121.21,50.1,116.87,50.1z"/>
		<path class="st1" d="M144.24,51.43c1.4-1.12,2.07-2.61,2.07-4.57c0-1.42-0.36-2.57-1.1-3.54c-0.76-0.98-2.21-1.99-4.31-2.99
			c-1.71-0.81-2.76-1.37-3.24-1.69c-0.51-0.35-0.88-0.71-1.14-1.12c-0.26-0.42-0.39-0.91-0.39-1.46c0-0.88,0.32-1.6,0.95-2.15
			c1.08-0.94,3.13-0.97,5.11-0.48c0.73,0.18,1.62,0.48,2.66,0.89l1.17-2.83c-1-0.41-1.96-0.74-2.88-0.97
			c-1.06-0.28-2.19-0.42-3.36-0.42c-2.34,0-4.18,0.56-5.48,1.65c-1.29,1.09-1.91,2.55-1.91,4.47c0,1.01,0.19,1.89,0.58,2.63
			c0.39,0.76,0.93,1.43,1.59,2c0.67,0.58,1.72,1.21,3.1,1.86c1.58,0.75,2.6,1.29,3.12,1.64c0.56,0.37,0.98,0.76,1.28,1.18
			c0.33,0.45,0.5,0.98,0.5,1.56c0,1.01-0.38,1.8-1.12,2.33c-1.23,0.87-3.42,0.96-6.02,0.28c-0.93-0.25-2.05-0.64-3.31-1.18v3.39
			c1.77,0.8,3.82,1.21,6.09,1.21C140.79,53.14,142.82,52.57,144.24,51.43z"/>
		<path class="st1" d="M35.14,30.44l-4.33,13.6c-0.02,0.07-0.04,0.13-0.06,0.2l-1.69,5.3l-6.11-19.11h-3.81l7.59,22.38h0.47h1.87
			h0.12h1.05h1.11l7.61-22.38H35.14z"/>
		<polygon class="st1" points="78.12,30.44 78.12,41 78.12,48.06 77.46,48.06 77.18,47.77 67.13,30.44 61.74,30.44 61.74,52.82 
			65.06,52.82 65.06,42.32 65.06,35.02 65.66,35.02 68.37,39.5 68.37,39.5 76.03,52.82 81.47,52.82 81.47,30.44 		"/>
	</g>
	<g>
		<path class="st0" d="M12.53,17.99c-1.82,0-4.23-0.62-4.23-5.98c0-2.01,0.4-3.57,1.18-4.64c1.07-1.46,2.97-1.84,5.05-1.11
			c0.76,0.27,1.52,0.58,2.26,0.93l0.98,0.47l2.19-5.51L19.1,1.74c-4.35-2.09-9.02-2.05-12.3-0.12C5.14,2.59,3.86,4,2.98,5.82
			c-0.86,1.77-1.29,3.84-1.29,6.16c0,3.69,0.9,6.59,2.67,8.62c1.81,2.07,4.42,3.12,7.75,3.12c2.24,0,4.31-0.39,6.15-1.15l0.63-0.26
			v-5.84l-1.36,0.48C15.56,17.64,13.88,17.99,12.53,17.99z"/>
		<path class="st0" d="M57.19,13.68c0.91-0.55,1.65-1.23,2.22-2.04c0.8-1.13,1.2-2.43,1.2-3.87c0-2.44-0.82-4.3-2.45-5.53
			c-1.56-1.18-3.83-1.76-6.93-1.76h-7.12v22.97h6.48v-8.03h0.77l5,8.03h7.41L57.19,13.68z M50.6,6.15h0.32
			c1.54,0,2.28,0.26,2.64,0.48c0.25,0.15,0.54,0.44,0.54,1.25c0,0.87-0.32,1.2-0.57,1.37c-0.34,0.24-1.05,0.52-2.52,0.52H50.6V6.15z
			"/>
		<path class="st0" d="M80.06,3.46c-2.08-1.98-4.99-2.99-8.66-2.99h-7.59v22.97h6.95c3.95,0,7.04-1.02,9.19-3.02
			c2.17-2.02,3.27-4.94,3.27-8.66C83.21,8.24,82.15,5.45,80.06,3.46z M71.17,17.73h-0.88V6.15h1.34c3.41,0,4.93,1.76,4.93,5.72
			C76.56,15.92,74.9,17.73,71.17,17.73z"/>
		<path class="st0" d="M103.72,3.25L103.72,3.25c-1.9-2.06-4.63-3.11-8.13-3.11c-3.49,0-6.24,1.04-8.15,3.08
			c-1.9,2.02-2.86,4.94-2.86,8.68c0,3.73,0.96,6.66,2.85,8.71c1.91,2.07,4.65,3.12,8.14,3.12c3.49,0,6.23-1.05,8.14-3.12
			c1.89-2.05,2.85-4.97,2.85-8.68C106.55,8.2,105.59,5.28,103.72,3.25z M95.56,17.96c-1.44,0-2.47-0.45-3.16-1.37
			c-0.75-1-1.13-2.57-1.13-4.67c0-2.1,0.38-3.67,1.14-4.67c0.7-0.93,1.74-1.38,3.18-1.38c1.83,0,4.26,0.63,4.26,6.05
			C99.85,17.34,97.4,17.96,95.56,17.96z"/>
		<path class="st0" d="M39.34,3.25L39.34,3.25c-1.9-2.06-4.63-3.11-8.13-3.11c-3.49,0-6.24,1.04-8.15,3.08
			c-1.9,2.02-2.86,4.94-2.86,8.68c0,3.73,0.96,6.66,2.85,8.71c1.91,2.07,4.65,3.12,8.14,3.12c3.49,0,6.23-1.05,8.14-3.12
			c1.89-2.05,2.85-4.97,2.85-8.68C42.16,8.2,41.21,5.28,39.34,3.25z M31.18,17.96c-1.44,0-2.47-0.45-3.16-1.37
			c-0.75-1-1.13-2.57-1.13-4.67c0-2.1,0.38-3.67,1.14-4.67c0.7-0.93,1.74-1.38,3.18-1.38c1.83,0,4.26,0.63,4.26,6.05
			C35.47,17.34,33.02,17.96,31.18,17.96z"/>
		<path class="st0" d="M125.33,12.52L125.33,12.52c-0.34-0.47-0.78-0.88-1.31-1.21c0.28-0.24,0.54-0.52,0.78-0.84
			c0.72-0.98,1.08-2.22,1.08-3.68c0-2.21-0.84-3.85-2.49-4.89c-1.52-0.96-3.81-1.42-7.01-1.42h-7.53v22.97h8.85
			c2.59,0,4.69-0.61,6.24-1.82c1.63-1.27,2.46-3.04,2.46-5.27C126.4,14.79,126.04,13.5,125.33,12.52z M115.32,14.32h1.73
			c2.7,0,2.7,1.07,2.7,1.59c0,0.95-0.37,1.25-0.49,1.35c-0.39,0.31-1.1,0.48-2.07,0.48h-1.87V14.32z M118.91,8.38
			c-0.2,0.14-0.74,0.38-2.03,0.38h-1.56V6.15h1.31c1.34,0,1.97,0.21,2.26,0.38c0.2,0.12,0.38,0.3,0.38,0.85
			C119.28,8.13,119.01,8.31,118.91,8.38z"/>
		<path class="st0" d="M140.17,0.38h-6.87l-8.1,23.05h6.98l1.52-4.98h6.12l1.52,4.98h6.98L140.17,0.38z M135.44,12.69
			c0.53-1.72,0.97-3.18,1.33-4.37c0.33,1.06,0.78,2.52,1.36,4.37H135.44z"/>
		<path class="st2" d="M12.74,4.37c0.82,0,1.66,0.15,2.5,0.44c0.64,0.22,1.29,0.48,1.92,0.77l1.05-2.66
			c-1.83-0.81-3.67-1.23-5.47-1.23c-1.89,0-3.56,0.42-4.96,1.24C6.4,3.76,5.31,4.95,4.57,6.49c-0.76,1.56-1.14,3.41-1.14,5.5
			c0,3.31,0.77,5.87,2.29,7.62c1.5,1.72,3.72,2.59,6.6,2.59c1.91,0,3.67-0.31,5.24-0.91v-2.67c-7.07,2.28-10.59,0.14-10.59-6.61
			c0-2.34,0.5-4.21,1.47-5.55C9.47,5.08,10.91,4.37,12.74,4.37z"/>
		<path class="st2" d="M31.21,1.67c-3.05,0-5.42,0.87-7.04,2.59c-1.62,1.73-2.45,4.3-2.45,7.63c0,3.34,0.82,5.92,2.44,7.67
			c1.61,1.74,3.97,2.63,7.01,2.63s5.4-0.88,7.01-2.63c1.62-1.75,2.44-4.33,2.44-7.64c0-3.33-0.81-5.9-2.42-7.64
			C36.61,2.55,34.26,1.67,31.21,1.67z M31.18,19.49c-1.93,0-3.4-0.67-4.39-1.98c-0.95-1.27-1.43-3.15-1.43-5.59
			c0-2.44,0.49-4.32,1.45-5.6c0.99-1.32,2.47-1.98,4.4-1.98c3.84,0,5.79,2.55,5.79,7.58C37,16.95,35.04,19.49,31.18,19.49z"/>
		<path class="st2" d="M55.64,12.83c1.15-0.5,2.04-1.2,2.67-2.08c0.61-0.87,0.92-1.87,0.92-2.99c0-1.96-0.6-3.37-1.85-4.31
			C56.12,2.49,54.1,2,51.38,2h-5.59v19.91h3.42v-8.03h3.15l5,8.03h3.68l-5.96-8.83L55.64,12.83z M51.15,11.29h-1.94V4.62h1.86
			c1.54,0,2.67,0.23,3.44,0.71c0.84,0.52,1.27,1.38,1.27,2.55c0,1.17-0.41,2.06-1.22,2.62C53.79,11.03,52.67,11.29,51.15,11.29z"/>
		<path class="st2" d="M71.4,2h-6.06v19.91h5.42c3.55,0,6.29-0.88,8.15-2.61c1.85-1.72,2.78-4.26,2.78-7.54
			c0-3.08-0.9-5.49-2.68-7.19C77.22,2.86,74.66,2,71.4,2z M71.17,19.26h-2.41V4.62h2.87c4.23,0,6.47,2.51,6.47,7.25
			C78.09,16.71,75.7,19.26,71.17,19.26z"/>
		<path class="st2" d="M95.59,1.67c-3.05,0-5.42,0.87-7.04,2.59c-1.62,1.73-2.45,4.3-2.45,7.63c0,3.34,0.82,5.92,2.44,7.67
			c1.61,1.74,3.97,2.63,7.01,2.63c3.04,0,5.4-0.88,7.01-2.63c1.62-1.75,2.44-4.33,2.44-7.64c0-3.33-0.81-5.9-2.42-7.64
			C101,2.55,98.64,1.67,95.59,1.67z M95.56,19.49c-1.93,0-3.4-0.67-4.39-1.98c-0.95-1.27-1.43-3.15-1.43-5.59
			c0-2.44,0.49-4.32,1.45-5.6c0.99-1.32,2.47-1.98,4.4-1.98c3.84,0,5.79,2.55,5.79,7.58C101.38,16.95,99.42,19.49,95.56,19.49z"/>
		<path class="st2" d="M121.52,11.95l-0.4-0.09v-0.98l0.43-0.07c0.84-0.14,1.5-0.55,2.01-1.24c0.52-0.71,0.78-1.64,0.78-2.78
			c0-1.67-0.58-2.85-1.77-3.6C121.32,2.4,119.23,2,116.38,2h-6v19.91h7.32c2.24,0,4.03-0.5,5.31-1.5c1.26-0.97,1.87-2.3,1.87-4.06
			c0-1.23-0.26-2.22-0.78-2.94C123.58,12.71,122.71,12.22,121.52,11.95z M113.79,4.62h2.84c1.38,0,2.37,0.19,3.05,0.59
			c0.52,0.31,1.13,0.93,1.13,2.16c0,1.03-0.35,1.8-1.03,2.27c-0.63,0.44-1.58,0.65-2.9,0.65h-3.09V4.62z M120.22,18.45
			c-0.68,0.55-1.67,0.81-3.03,0.81h-3.4v-6.47h3.26c3.5,0,4.23,1.69,4.23,3.12C121.28,17.03,120.92,17.88,120.22,18.45z"/>
		<path class="st2" d="M139.09,1.91h-4.7l-7.03,19.99h3.68l1.52-4.98h8.39l1.52,4.98h3.68L139.09,1.91z M133.36,14.22l0.2-0.66
			c0.59-1.92,1.09-3.54,1.5-4.9l1.61-5.26l3.53,10.82H133.36z"/>
	</g>
</g>
</svg>
